# Blender v2.77 (sub 0) OBJ File: 'colorWheel.blend'
# www.blender.org
mtllib colorWheel.mtl
o Cylinder.001
v 0.000000 1.000000 -1.000000
v 0.195090 1.000000 -0.980785
v 0.382683 1.000000 -0.923880
v 0.555570 1.000000 -0.831470
v 0.707107 1.000000 -0.707107
v 0.831470 1.000000 -0.555570
v 0.923880 1.000000 -0.382683
v 0.980785 1.000000 -0.195090
v 1.000000 1.000000 -0.000000
v 0.980785 1.000000 0.195090
v 0.923880 1.000000 0.382683
v 0.831470 1.000000 0.555570
v 0.707107 1.000000 0.707107
v 0.555570 1.000000 0.831470
v 0.382683 1.000000 0.923880
v 0.195090 1.000000 0.980785
v -0.000000 1.000000 1.000000
v -0.195091 1.000000 0.980785
v -0.382684 1.000000 0.923879
v -0.555571 1.000000 0.831469
v -0.707107 1.000000 0.707106
v -0.831470 1.000000 0.555570
v -0.923880 1.000000 0.382683
v -0.980785 1.000000 0.195089
v -1.000000 1.000000 -0.000001
v -0.980785 1.000000 -0.195091
v -0.923879 1.000000 -0.382684
v -0.831469 1.000000 -0.555571
v -0.707106 1.000000 -0.707108
v -0.555569 1.000000 -0.831470
v -0.382682 1.000000 -0.923880
v -0.195089 1.000000 -0.980786
vt 0.6040 0.9891
vt 0.5065 1.0000
vt 0.4089 0.9916
vt 0.3147 0.9644
vt 0.2277 0.9193
vt 0.1511 0.8582
vt 0.0879 0.7832
vt 0.0406 0.6974
vt 0.0109 0.6040
vt 0.0000 0.5065
vt 0.0084 0.4089
vt 0.0356 0.3147
vt 0.0807 0.2277
vt 0.1418 0.1511
vt 0.2168 0.0879
vt 0.3026 0.0406
vt 0.3960 0.0109
vt 0.4935 0.0000
vt 0.5911 0.0084
vt 0.6853 0.0356
vt 0.7723 0.0807
vt 0.8489 0.1418
vt 0.9121 0.2168
vt 0.9594 0.3026
vt 0.9891 0.3960
vt 1.0000 0.4935
vt 0.9916 0.5911
vt 0.9644 0.6853
vt 0.9193 0.7723
vt 0.8582 0.8489
vt 0.7832 0.9121
vt 0.6974 0.9594
vn 0.0000 1.0000 0.0000
usemtl Material.002
s off
f 2/1/1 1/2/1 32/3/1 31/4/1 30/5/1 29/6/1 28/7/1 27/8/1 26/9/1 25/10/1 24/11/1 23/12/1 22/13/1 21/14/1 20/15/1 19/16/1 18/17/1 17/18/1 16/19/1 15/20/1 14/21/1 13/22/1 12/23/1 11/24/1 10/25/1 9/26/1 8/27/1 7/28/1 6/29/1 5/30/1 4/31/1 3/32/1
o Cylinder
v 0.000000 -1.000000 -1.000000
v 0.000000 1.000000 -1.000000
v 0.195090 -1.000000 -0.980785
v 0.195090 1.000000 -0.980785
v 0.382683 -1.000000 -0.923880
v 0.382683 1.000000 -0.923880
v 0.555570 -1.000000 -0.831470
v 0.555570 1.000000 -0.831470
v 0.707107 -1.000000 -0.707107
v 0.707107 1.000000 -0.707107
v 0.831470 -1.000000 -0.555570
v 0.831470 1.000000 -0.555570
v 0.923880 -1.000000 -0.382683
v 0.923880 1.000000 -0.382683
v 0.980785 -1.000000 -0.195090
v 0.980785 1.000000 -0.195090
v 1.000000 -1.000000 -0.000000
v 1.000000 1.000000 -0.000000
v 0.980785 -1.000000 0.195090
v 0.980785 1.000000 0.195090
v 0.923880 -1.000000 0.382683
v 0.923880 1.000000 0.382683
v 0.831470 -1.000000 0.555570
v 0.831470 1.000000 0.555570
v 0.707107 -1.000000 0.707107
v 0.707107 1.000000 0.707107
v 0.555570 -1.000000 0.831470
v 0.555570 1.000000 0.831470
v 0.382683 -1.000000 0.923880
v 0.382683 1.000000 0.923880
v 0.195090 -1.000000 0.980785
v 0.195090 1.000000 0.980785
v -0.000000 -1.000000 1.000000
v -0.000000 1.000000 1.000000
v -0.195091 -1.000000 0.980785
v -0.195091 1.000000 0.980785
v -0.382684 -1.000000 0.923879
v -0.382684 1.000000 0.923879
v -0.555571 -1.000000 0.831469
v -0.555571 1.000000 0.831469
v -0.707107 -1.000000 0.707106
v -0.707107 1.000000 0.707106
v -0.831470 -1.000000 0.555570
v -0.831470 1.000000 0.555570
v -0.923880 -1.000000 0.382683
v -0.923880 1.000000 0.382683
v -0.980785 -1.000000 0.195089
v -0.980785 1.000000 0.195089
v -1.000000 -1.000000 -0.000001
v -1.000000 1.000000 -0.000001
v -0.980785 -1.000000 -0.195091
v -0.980785 1.000000 -0.195091
v -0.923879 -1.000000 -0.382684
v -0.923879 1.000000 -0.382684
v -0.831469 -1.000000 -0.555571
v -0.831469 1.000000 -0.555571
v -0.707106 -1.000000 -0.707108
v -0.707106 1.000000 -0.707108
v -0.555569 -1.000000 -0.831470
v -0.555569 1.000000 -0.831470
v -0.382682 -1.000000 -0.923880
v -0.382682 1.000000 -0.923880
v -0.195089 -1.000000 -0.980786
v -0.195089 1.000000 -0.980786
vt 0.9891 1.0028
vt 0.9891 1.0028
vt 0.9891 1.0028
vt 0.9891 1.0028
vt 0.9891 1.0028
vt 0.9891 1.0028
vt 0.9891 1.0028
vt 0.9891 1.0028
vt 0.9891 1.0028
vt 0.9891 1.0028
vt 0.9891 1.0028
vt 0.9891 1.0028
vt 0.9891 1.0028
vt 0.9891 1.0028
vt 0.9891 1.0028
vt 0.9891 1.0028
vt 0.9891 1.0028
vt 0.9891 1.0028
vt 0.9891 1.0028
vt 0.9891 1.0028
vt 0.9891 1.0028
vt 0.9891 1.0028
vt 0.9891 1.0028
vt 0.9891 1.0028
vt 0.9891 1.0028
vt 0.9891 1.0028
vt 0.9891 1.0028
vt 0.9891 1.0028
vt 0.9891 1.0028
vt 0.9891 1.0028
vt 0.9891 1.0028
vt 0.9891 1.0028
vt 0.0001 1.0001
vt 0.0001 0.0001
vt 0.0312 0.0001
vt 0.0312 1.0001
vt 0.0623 0.0001
vt 0.0623 1.0001
vt 0.0934 0.0001
vt 0.0934 1.0001
vt 0.1246 0.0001
vt 0.1246 1.0001
vt 0.1557 0.0001
vt 0.1557 1.0001
vt 0.1868 0.0001
vt 0.1868 1.0001
vt 0.2180 0.0001
vt 0.2180 1.0001
vt 0.2491 0.0001
vt 0.2491 1.0001
vt 0.2802 0.0001
vt 0.2802 1.0001
vt 0.3113 0.0001
vt 0.3113 1.0001
vt 0.3425 0.0001
vt 0.3425 1.0001
vt 0.3736 0.0001
vt 0.3736 1.0001
vt 0.4047 0.0001
vt 0.4047 1.0001
vt 0.4359 0.0001
vt 0.4359 1.0001
vt 0.4670 0.0001
vt 0.4670 1.0001
vt 0.4981 0.0001
vt 0.4981 1.0001
vt 0.5293 0.0001
vt 0.5293 1.0001
vt 0.5604 0.0001
vt 0.5604 1.0001
vt 0.5915 0.0001
vt 0.5915 1.0001
vt 0.6226 0.0001
vt 0.6226 1.0001
vt 0.6538 0.0001
vt 0.6538 1.0001
vt 0.6849 0.0001
vt 0.6849 1.0001
vt 0.7160 0.0001
vt 0.7160 1.0001
vt 0.7472 0.0001
vt 0.7472 1.0001
vt 0.7783 0.0001
vt 0.7783 1.0001
vt 0.8094 0.0001
vt 0.8094 1.0001
vt 0.8405 0.0001
vt 0.8405 1.0001
vt 0.8717 0.0001
vt 0.8717 1.0001
vt 0.9028 0.0001
vt 0.9028 1.0001
vt 0.9339 0.0001
vt 0.9339 1.0001
vt 0.9651 0.0001
vt 0.9651 1.0001
vt 0.9962 0.0001
vt 0.9962 1.0001
vn 0.0000 -1.0000 -0.0000
vn 0.0000 -0.6857 -0.7279
vn 0.0000 0.0000 -1.0000
vn 0.1951 0.0000 -0.9808
vn 0.1420 -0.6857 -0.7139
vn 0.3827 0.0000 -0.9239
vn 0.2785 -0.6857 -0.6725
vn 0.5556 0.0000 -0.8314
vn 0.4044 -0.6857 -0.6052
vn 0.7071 0.0000 -0.7071
vn 0.5147 -0.6857 -0.5147
vn 0.8314 0.0000 -0.5556
vn 0.6052 -0.6857 -0.4044
vn 0.9239 0.0000 -0.3827
vn 0.6725 -0.6857 -0.2785
vn 0.9808 0.0000 -0.1951
vn 0.7139 -0.6857 -0.1420
vn 1.0000 0.0000 0.0000
vn 0.7279 -0.6857 0.0000
vn 0.9808 0.0000 0.1951
vn 0.7139 -0.6857 0.1420
vn 0.9239 0.0000 0.3827
vn 0.6725 -0.6857 0.2785
vn 0.8314 0.0000 0.5556
vn 0.6052 -0.6857 0.4044
vn 0.7071 0.0000 0.7071
vn 0.5147 -0.6857 0.5147
vn 0.5556 0.0000 0.8314
vn 0.4044 -0.6857 0.6052
vn 0.3827 0.0000 0.9239
vn 0.2785 -0.6857 0.6725
vn 0.1951 0.0000 0.9808
vn 0.1420 -0.6857 0.7139
vn 0.0000 0.0000 1.0000
vn 0.0000 -0.6857 0.7279
vn -0.1951 0.0000 0.9808
vn -0.1420 -0.6857 0.7139
vn -0.3827 0.0000 0.9239
vn -0.2785 -0.6857 0.6725
vn -0.5556 0.0000 0.8314
vn -0.4044 -0.6857 0.6052
vn -0.7071 0.0000 0.7071
vn -0.5147 -0.6857 0.5147
vn -0.8314 0.0000 0.5556
vn -0.6052 -0.6857 0.4044
vn -0.9239 0.0000 0.3827
vn -0.6725 -0.6857 0.2785
vn -0.9808 0.0000 0.1951
vn -0.7139 -0.6857 0.1420
vn -1.0000 0.0000 0.0000
vn -0.7279 -0.6857 0.0000
vn -0.9808 0.0000 -0.1951
vn -0.7139 -0.6857 -0.1420
vn -0.9239 0.0000 -0.3827
vn -0.6725 -0.6857 -0.2785
vn -0.8314 0.0000 -0.5556
vn -0.6052 -0.6857 -0.4044
vn -0.7071 0.0000 -0.7071
vn -0.5147 -0.6857 -0.5147
vn -0.5556 0.0000 -0.8314
vn -0.4044 -0.6857 -0.6052
vn -0.3827 0.0000 -0.9239
vn -0.2785 -0.6857 -0.6725
vn -0.1951 0.0000 -0.9808
vn -0.1420 -0.6857 -0.7139
usemtl Material.001
s off
f 33/33/2 35/34/2 37/35/2 39/36/2 41/37/2 43/38/2 45/39/2 47/40/2 49/41/2 51/42/2 53/43/2 55/44/2 57/45/2 59/46/2 61/47/2 63/48/2 65/49/2 67/50/2 69/51/2 71/52/2 73/53/2 75/54/2 77/55/2 79/56/2 81/57/2 83/58/2 85/59/2 87/60/2 89/61/2 91/62/2 93/63/2 95/64/2
s 1
f 33/65/3 34/66/4 36/67/5 35/68/6
f 35/68/6 36/67/5 38/69/7 37/70/8
f 37/70/8 38/69/7 40/71/9 39/72/10
f 39/72/10 40/71/9 42/73/11 41/74/12
f 41/74/12 42/73/11 44/75/13 43/76/14
f 43/76/14 44/75/13 46/77/15 45/78/16
f 45/78/16 46/77/15 48/79/17 47/80/18
f 47/80/18 48/79/17 50/81/19 49/82/20
f 49/82/20 50/81/19 52/83/21 51/84/22
f 51/84/22 52/83/21 54/85/23 53/86/24
f 53/86/24 54/85/23 56/87/25 55/88/26
f 55/88/26 56/87/25 58/89/27 57/90/28
f 57/90/28 58/89/27 60/91/29 59/92/30
f 59/92/30 60/91/29 62/93/31 61/94/32
f 61/94/32 62/93/31 64/95/33 63/96/34
f 63/96/34 64/95/33 66/97/35 65/98/36
f 65/98/36 66/97/35 68/99/37 67/100/38
f 67/100/38 68/99/37 70/101/39 69/102/40
f 69/102/40 70/101/39 72/103/41 71/104/42
f 71/104/42 72/103/41 74/105/43 73/106/44
f 73/106/44 74/105/43 76/107/45 75/108/46
f 75/108/46 76/107/45 78/109/47 77/110/48
f 77/110/48 78/109/47 80/111/49 79/112/50
f 79/112/50 80/111/49 82/113/51 81/114/52
f 81/114/52 82/113/51 84/115/53 83/116/54
f 83/116/54 84/115/53 86/117/55 85/118/56
f 85/118/56 86/117/55 88/119/57 87/120/58
f 87/120/58 88/119/57 90/121/59 89/122/60
f 89/122/60 90/121/59 92/123/61 91/124/62
f 91/124/62 92/123/61 94/125/63 93/126/64
f 93/126/64 94/125/63 96/127/65 95/128/66
f 95/128/66 96/127/65 34/129/4 33/130/3
