# Blender v2.77 (sub 0) OBJ File: 'selection cube.blend'
# www.blender.org
mtllib selector 3.mtl
o Cube.001_Cube.002
v -0.500000 -0.500000 0.500000
v -0.557735 -0.557735 0.557735
v -0.500000 0.500000 0.500000
v -0.557735 0.557735 0.557735
v -0.500000 -0.500000 -0.500000
v -0.557735 -0.557735 -0.557735
v -0.500000 0.500000 -0.500000
v -0.557735 0.557735 -0.557735
v 0.500000 -0.500000 0.500000
v 0.557735 -0.557735 0.557735
v 0.500000 0.500000 0.500000
v 0.557735 0.557735 0.557735
v 0.500000 -0.500000 -0.500000
v 0.557735 -0.557735 -0.557735
v 0.500000 0.500000 -0.500000
v 0.557735 0.557735 -0.557735
v -0.528867 0.478867 0.478867
v -0.528867 0.478867 -0.478867
v -0.528867 -0.478867 -0.478867
v -0.528867 -0.478867 0.478867
v -0.478867 0.478867 -0.528867
v 0.478867 0.478867 -0.528867
v 0.478867 -0.478867 -0.528867
v -0.478867 -0.478867 -0.528867
v 0.528867 0.478867 -0.478867
v 0.528867 0.478867 0.478867
v 0.528867 -0.478867 0.478867
v 0.528867 -0.478867 -0.478867
v 0.478867 0.478867 0.528867
v -0.478867 0.478867 0.528867
v -0.478867 -0.478867 0.528867
v 0.478867 -0.478867 0.528867
v -0.478867 -0.528867 0.478867
v -0.478867 -0.528867 -0.478867
v 0.478867 -0.528867 -0.478867
v 0.478867 -0.528867 0.478867
v 0.478867 0.528867 0.478867
v 0.478867 0.528867 -0.478867
v -0.478867 0.528867 -0.478867
v -0.478867 0.528867 0.478867
vn 0.5907 -0.8069 0.0000
vn -0.9391 -0.3437 0.0000
vn 0.5907 0.0000 0.8069
vn -0.9391 0.0000 0.3437
vn 0.5907 0.8069 0.0000
vn -0.9391 0.3437 0.0000
vn 0.5907 0.0000 -0.8069
vn -0.9391 0.0000 -0.3437
vn 0.0000 -0.8069 0.5907
vn 0.0000 -0.3437 -0.9391
vn -0.8069 0.0000 0.5907
vn -0.3437 0.0000 -0.9391
vn 0.0000 0.8069 0.5907
vn 0.0000 0.3437 -0.9391
vn 0.8069 0.0000 0.5907
vn 0.3437 0.0000 -0.9391
vn -0.5907 -0.8069 0.0000
vn 0.9391 -0.3437 0.0000
vn -0.5907 0.0000 -0.8069
vn 0.9391 0.0000 -0.3437
vn -0.5907 0.8069 0.0000
vn 0.9391 0.3437 0.0000
vn -0.5907 0.0000 0.8069
vn 0.9391 0.0000 0.3437
vn 0.0000 -0.8069 -0.5907
vn 0.0000 -0.3437 0.9391
vn 0.8069 0.0000 -0.5907
vn 0.3437 0.0000 0.9391
vn 0.0000 0.8069 -0.5907
vn 0.0000 0.3437 0.9391
vn -0.8069 0.0000 -0.5907
vn -0.3437 0.0000 0.9391
vn 0.8069 0.5907 0.0000
vn 0.3437 -0.9391 0.0000
vn 0.0000 0.5907 0.8069
vn 0.0000 -0.9391 0.3437
vn -0.8069 0.5907 0.0000
vn -0.3437 -0.9391 0.0000
vn 0.0000 0.5907 -0.8069
vn 0.0000 -0.9391 -0.3437
vn -0.8069 -0.5907 0.0000
vn -0.3437 0.9391 0.0000
vn 0.0000 -0.5907 0.8069
vn 0.0000 0.9391 0.3437
vn 0.8069 -0.5907 0.0000
vn 0.3437 0.9391 0.0000
vn 0.0000 -0.5907 -0.8069
vn 0.0000 0.9391 -0.3437
usemtl None
s off
f 17//1 18//1 7//1 3//1
f 18//2 17//2 4//2 8//2
f 18//3 19//3 5//3 7//3
f 19//4 18//4 8//4 6//4
f 19//5 20//5 1//5 5//5
f 20//6 19//6 6//6 2//6
f 20//7 17//7 3//7 1//7
f 17//8 20//8 2//8 4//8
f 21//9 22//9 15//9 7//9
f 22//10 21//10 8//10 16//10
f 22//11 23//11 13//11 15//11
f 23//12 22//12 16//12 14//12
f 23//13 24//13 5//13 13//13
f 24//14 23//14 14//14 6//14
f 24//15 21//15 7//15 5//15
f 21//16 24//16 6//16 8//16
f 25//17 26//17 11//17 15//17
f 26//18 25//18 16//18 12//18
f 26//19 27//19 9//19 11//19
f 27//20 26//20 12//20 10//20
f 27//21 28//21 13//21 9//21
f 28//22 27//22 10//22 14//22
f 28//23 25//23 15//23 13//23
f 25//24 28//24 14//24 16//24
f 29//25 30//25 3//25 11//25
f 30//26 29//26 12//26 4//26
f 30//27 31//27 1//27 3//27
f 31//28 30//28 4//28 2//28
f 31//29 32//29 9//29 1//29
f 32//30 31//30 2//30 10//30
f 32//31 29//31 11//31 9//31
f 29//32 32//32 10//32 12//32
f 33//33 34//33 5//33 1//33
f 34//34 33//34 2//34 6//34
f 34//35 35//35 13//35 5//35
f 35//36 34//36 6//36 14//36
f 35//37 36//37 9//37 13//37
f 36//38 35//38 14//38 10//38
f 36//39 33//39 1//39 9//39
f 33//40 36//40 10//40 2//40
f 37//41 38//41 15//41 11//41
f 38//42 37//42 12//42 16//42
f 38//43 39//43 7//43 15//43
f 39//44 38//44 16//44 8//44
f 39//45 40//45 3//45 7//45
f 40//46 39//46 8//46 4//46
f 40//47 37//47 11//47 3//47
f 37//48 40//48 4//48 12//48
