# MagicaVoxel @ ephtracy

# material
mtllib treeTemp.mtl
usemtl palette

# normals
vn -1 0 0
vn 1 0 0
vn 0 0 1
vn 0 0 -1
vn 0 -1 0
vn 0 1 0

# texcoords
vt 0.373047 0.5
vt 0.904297 0.5

# verts
v -1.5 1 1.5
v -1.5 1 -1.5
v -1.5 3 1.5
v -1.5 3 0.5
v -1.5 3 -0.5
v -1.5 3 -1.5
v -1.5 5 0.5
v -1.5 5 -0.5
v -0.5 0 0.5
v -0.5 0 -0.5
v -0.5 1 0.5
v -0.5 1 -0.5
v -0.5 3 1.5
v -0.5 3 0.5
v -0.5 3 -0.5
v -0.5 3 -1.5
v -0.5 5 1.5
v -0.5 5 0.5
v -0.5 5 -0.5
v -0.5 5 -1.5
v -0.5 6 0.5
v -0.5 6 -0.5
v 0.5 0 0.5
v 0.5 0 -0.5
v 0.5 1 0.5
v 0.5 1 -0.5
v 0.5 3 1.5
v 0.5 3 0.5
v 0.5 3 -0.5
v 0.5 3 -1.5
v 0.5 5 1.5
v 0.5 5 0.5
v 0.5 5 -0.5
v 0.5 5 -1.5
v 0.5 6 0.5
v 0.5 6 -0.5
v 1.5 1 1.5
v 1.5 1 -1.5
v 1.5 3 1.5
v 1.5 3 0.5
v 1.5 3 -0.5
v 1.5 3 -1.5
v 1.5 5 0.5
v 1.5 5 -0.5
v -1.5 1 1.5
v -1.5 3 1.5
v -0.5 3 1.5
v -0.5 5 1.5
v 0.5 3 1.5
v 0.5 5 1.5
v 1.5 1 1.5
v 1.5 3 1.5
v -1.5 3 0.5
v -1.5 5 0.5
v -0.5 0 0.5
v -0.5 1 0.5
v -0.5 3 0.5
v -0.5 5 0.5
v -0.5 6 0.5
v 0.5 0 0.5
v 0.5 1 0.5
v 0.5 3 0.5
v 0.5 5 0.5
v 0.5 6 0.5
v 1.5 3 0.5
v 1.5 5 0.5
v -1.5 3 -0.5
v -1.5 5 -0.5
v -0.5 0 -0.5
v -0.5 1 -0.5
v -0.5 3 -0.5
v -0.5 5 -0.5
v -0.5 6 -0.5
v 0.5 0 -0.5
v 0.5 1 -0.5
v 0.5 3 -0.5
v 0.5 5 -0.5
v 0.5 6 -0.5
v 1.5 3 -0.5
v 1.5 5 -0.5
v -1.5 1 -1.5
v -1.5 3 -1.5
v -0.5 3 -1.5
v -0.5 5 -1.5
v 0.5 3 -1.5
v 0.5 5 -1.5
v 1.5 1 -1.5
v 1.5 3 -1.5
v -0.5 0 0.5
v 0.5 0 0.5
v -0.5 0 -0.5
v 0.5 0 -0.5
v -1.5 1 1.5
v 1.5 1 1.5
v -0.5 1 0.5
v 0.5 1 0.5
v -0.5 1 -0.5
v 0.5 1 -0.5
v -1.5 1 -1.5
v 1.5 1 -1.5
v -1.5 3 1.5
v -0.5 3 1.5
v 0.5 3 1.5
v 1.5 3 1.5
v -1.5 3 0.5
v -0.5 3 0.5
v 0.5 3 0.5
v 1.5 3 0.5
v -1.5 3 -0.5
v -0.5 3 -0.5
v 0.5 3 -0.5
v 1.5 3 -0.5
v -1.5 3 -1.5
v -0.5 3 -1.5
v 0.5 3 -1.5
v 1.5 3 -1.5
v -0.5 5 1.5
v 0.5 5 1.5
v -1.5 5 0.5
v -0.5 5 0.5
v 0.5 5 0.5
v 1.5 5 0.5
v -1.5 5 -0.5
v -0.5 5 -0.5
v 0.5 5 -0.5
v 1.5 5 -0.5
v -0.5 5 -1.5
v 0.5 5 -1.5
v -0.5 6 0.5
v 0.5 6 0.5
v -0.5 6 -0.5
v 0.5 6 -0.5

# faces
f 3/2/1 2/2/1 1/2/1
f 4/2/1 2/2/1 3/2/1
f 5/2/1 2/2/1 4/2/1
f 6/2/1 2/2/1 5/2/1
f 7/2/1 5/2/1 4/2/1
f 8/2/1 5/2/1 7/2/1
f 11/1/1 10/1/1 9/1/1
f 12/1/1 10/1/1 11/1/1
f 17/2/1 14/2/1 13/2/1
f 18/2/1 14/2/1 17/2/1
f 19/2/1 16/2/1 15/2/1
f 20/2/1 16/2/1 19/2/1
f 21/2/1 19/2/1 18/2/1
f 22/2/1 19/2/1 21/2/1
f 23/1/2 24/1/2 25/1/2
f 25/1/2 24/1/2 26/1/2
f 27/2/2 28/2/2 31/2/2
f 31/2/2 28/2/2 32/2/2
f 29/2/2 30/2/2 33/2/2
f 33/2/2 30/2/2 34/2/2
f 32/2/2 33/2/2 35/2/2
f 35/2/2 33/2/2 36/2/2
f 37/2/2 38/2/2 39/2/2
f 39/2/2 38/2/2 40/2/2
f 40/2/2 38/2/2 41/2/2
f 41/2/2 38/2/2 42/2/2
f 40/2/2 41/2/2 43/2/2
f 43/2/2 41/2/2 44/2/2
f 47/2/3 46/2/3 45/2/3
f 49/2/3 47/2/3 45/2/3
f 49/2/3 48/2/3 47/2/3
f 50/2/3 48/2/3 49/2/3
f 51/2/3 49/2/3 45/2/3
f 52/2/3 49/2/3 51/2/3
f 57/2/3 54/2/3 53/2/3
f 58/2/3 54/2/3 57/2/3
f 60/1/3 56/1/3 55/1/3
f 61/1/3 56/1/3 60/1/3
f 63/2/3 59/2/3 58/2/3
f 64/2/3 59/2/3 63/2/3
f 65/2/3 63/2/3 62/2/3
f 66/2/3 63/2/3 65/2/3
f 67/2/4 68/2/4 71/2/4
f 71/2/4 68/2/4 72/2/4
f 69/1/4 70/1/4 74/1/4
f 74/1/4 70/1/4 75/1/4
f 72/2/4 73/2/4 77/2/4
f 77/2/4 73/2/4 78/2/4
f 76/2/4 77/2/4 79/2/4
f 79/2/4 77/2/4 80/2/4
f 81/2/4 82/2/4 83/2/4
f 81/2/4 83/2/4 85/2/4
f 83/2/4 84/2/4 85/2/4
f 85/2/4 84/2/4 86/2/4
f 81/2/4 85/2/4 87/2/4
f 87/2/4 85/2/4 88/2/4
f 91/1/5 90/1/5 89/1/5
f 92/1/5 90/1/5 91/1/5
f 95/2/5 94/2/5 93/2/5
f 96/2/5 94/2/5 95/2/5
f 97/2/5 95/2/5 93/2/5
f 98/2/5 94/2/5 96/2/5
f 99/2/5 97/2/5 93/2/5
f 99/2/5 98/2/5 97/2/5
f 100/2/5 94/2/5 98/2/5
f 100/2/5 98/2/5 99/2/5
f 101/2/6 102/2/6 105/2/6
f 105/2/6 102/2/6 106/2/6
f 103/2/6 104/2/6 107/2/6
f 107/2/6 104/2/6 108/2/6
f 109/2/6 110/2/6 113/2/6
f 113/2/6 110/2/6 114/2/6
f 111/2/6 112/2/6 115/2/6
f 115/2/6 112/2/6 116/2/6
f 117/2/6 118/2/6 120/2/6
f 120/2/6 118/2/6 121/2/6
f 119/2/6 120/2/6 123/2/6
f 123/2/6 120/2/6 124/2/6
f 121/2/6 122/2/6 125/2/6
f 125/2/6 122/2/6 126/2/6
f 124/2/6 125/2/6 127/2/6
f 127/2/6 125/2/6 128/2/6
f 129/2/6 130/2/6 131/2/6
f 131/2/6 130/2/6 132/2/6
